<?xml version="1.0" encoding="UTF-8" standalone="no"?>
<!-- Created with Inkscape (http://www.inkscape.org/) -->

<svg
   version="1.1"
   id="svg1"
   width="500"
   height="500"
   viewBox="0 0 500 500"
   sodipodi:docname="helpviber-icon.svg"
   inkscape:version="1.4.2 (ebf0e94, 2025-05-08)"
   xmlns:inkscape="http://www.inkscape.org/namespaces/inkscape"
   xmlns:sodipodi="http://sodipodi.sourceforge.net/DTD/sodipodi-0.dtd"
   xmlns="http://www.w3.org/2000/svg"
   xmlns:svg="http://www.w3.org/2000/svg">
  <defs
     id="defs1" />
  <sodipodi:namedview
     id="namedview1"
     pagecolor="#ffffff"
     bordercolor="#000000"
     borderopacity="0.25"
     inkscape:showpageshadow="2"
     inkscape:pageopacity="0.0"
     inkscape:pagecheckerboard="0"
     inkscape:deskcolor="#d1d1d1"
     showgrid="false"
     inkscape:zoom="1.606"
     inkscape:cx="181.81818"
     inkscape:cy="235.6787"
     inkscape:window-width="1854"
     inkscape:window-height="1011"
     inkscape:window-x="0"
     inkscape:window-y="0"
     inkscape:window-maximized="1"
     inkscape:current-layer="g2" />
  <g
     inkscape:groupmode="layer"
     inkscape:label="Image"
     id="g1">
    <g
       id="g2"
       transform="translate(-4.9813164,-8.71731)">
      <path
         style="fill:#44b260"
         d="m 246,492.98608 -1.5,-0.98329 3.40268,0.65414 3.40268,0.65414 -0.64208,-4.01537 -0.64209,-4.01537 -0.032,-88.24523 -0.032,-88.24523 33.7714,-34.96739 33.7714,-34.96738 0.30419,-0.84012 0.30419,-0.84012 -8.01001,-11.33743 L 302.08837,214.5 289.29418,196.52069 276.5,178.54138 270.75,170.27442 265,162.00746 v -1.94029 -1.94029 l 4.38142,-11.81344 4.38143,-11.81344 7.23111,-19 7.23111,-19 3.45286,-9 3.45286,-9 1.83348,-5 1.83348,-5 4.62066,-11.397126 4.62067,-11.397126 -0.4082,-0.408205 -0.40821,-0.408205 L 295.36134,55.228613 283.5,65.567888 268.31884,78.268045 253.13769,90.968202 252.50983,91.984101 251.88197,93 H 250.94098 250 V 52 11 h 90.53212 90.53212 l 3.29998,1.37882 3.29998,1.37882 2.14162,2.722627 2.14162,2.722628 0.63157,3.366587 0.63158,3.366588 -2.49439,9.281965 -2.49438,9.281965 -4.58708,16 -4.58707,16 -2.53451,8.5 -2.53452,8.5 -5.47891,19.5 -5.4789,19.5 -2.43951,8.5 -2.43951,8.5 -3.04526,10.5 -3.04527,10.5 -2.93188,10.5 -2.93189,10.5 -6.68269,23 -6.6827,23 -1.37962,5 -1.37962,5 -2.0238,6.5 -2.0238,6.5 -0.008,0.70672 -0.008,0.70672 28.92873,0.29328 28.92873,0.29328 2.82127,2.09997 2.82127,2.09997 0.30344,4.06697 0.30344,4.06697 -11.65609,13.83306 L 416.7947,302.5 401.64735,320.40505 386.5,338.31009 374,353.09059 361.5,367.87108 344.30979,388.18554 327.11959,408.5 314.30979,423.60663 301.5,438.71326 l -5.54632,6.39337 -5.54632,6.39337 -17.21057,20.09262 -17.21057,20.09263 -2.54016,1.15737 L 250.90589,494 249.20295,493.9847 247.5,493.9694 Z M 241.40499,489.75 239.5,487.5 l 2.25,1.90499 2.25,1.90499 V 491.65499 492 h -0.34501 -0.34501 z m -6,-7 -1.90499,-2.25 2.25,1.90499 2.25,1.90499 V 484.65499 485 h -0.34501 -0.34501 z m -5.05008,-6 -1.99372,-2.25 -4.93059,-5.94029 -4.9306,-5.94029 1.07466,0.64094 1.07466,0.64094 6.2446,7.54935 6.24461,7.54935 h -0.39495 -0.39495 z m -14.94992,-18 -1.90499,-2.25 2.25,1.90499 2.25,1.90499 V 460.65499 461 h -0.34501 -0.34501 z m -5.48068,-6.5 -2.42431,-2.75 2.75,2.42431 2.75,2.42432 V 454.67431 455 h -0.32569 -0.32568 z M 203,444 l -4.18624,-5 h 0.5 0.5 l 4.18624,5 4.18624,5 h -0.5 -0.5 z m -7.59501,-9.25 -1.90499,-2.25 2.25,1.90499 2.25,1.90499 V 436.65499 437 h -0.34501 -0.34501 z m -5,-6 -1.90499,-2.25 2.25,1.90499 2.25,1.90499 V 430.65499 431 h -0.34501 -0.34501 z m -6,-7 -1.90499,-2.25 2.25,1.90499 2.25,1.90499 V 423.65499 424 h -0.34501 -0.34501 z m -5.48068,-6.5 -2.42431,-2.75 2.75,2.42431 2.75,2.42432 V 417.67431 418 h -0.32569 -0.32568 z m -4.51932,-5.5 -1.90499,-2.25 2.25,1.90499 2.25,1.90499 V 411.65499 412 h -0.34501 -0.34501 z m -5,-6 -1.90499,-2.25 2.25,1.90499 2.25,1.90499 V 405.65499 406 h -0.34501 -0.34501 z m -5,-6 -1.90499,-2.25 2.25,1.90499 2.25,1.90499 V 399.65499 400 h -0.34501 -0.34501 z m -6,-7 -1.90499,-2.25 2.25,1.90499 2.25,1.90499 V 392.65499 393 h -0.34501 -0.34501 z m -5,-6 -1.90499,-2.25 2.25,1.90499 2.25,1.90499 V 386.65499 387 h -0.34501 -0.34501 z m -4.9679,-6 -2.93709,-3.25 3.25,2.93709 3.25,2.93709 V 381.68709 382 h -0.31291 -0.31291 z m -5.51278,-6.5 -2.42431,-2.75 2.75,2.42431 2.75,2.42432 V 374.67431 375 h -0.32569 -0.32568 z m -5.05187,-6 -1.37244,-1.75 1.75,1.37244 1.75,1.37245 V 367.62244 368 h -0.37756 -0.37755 z M 197,362.5 V 362 h 0.5 0.5 v 0.5 0.5 h -0.5 -0.5 z m 3.5,-1.5 1.80998,-2 h 0.5 0.5 l -1.80998,2 -1.80998,2 h -0.5 -0.5 z m -68.09501,-1.25 -1.90499,-2.25 2.25,1.90499 2.25,1.90499 V 361.65499 362 h -0.34501 -0.34501 z M 198,359.5 V 359 h 0.5 0.5 v 0.5 0.5 h -0.5 -0.5 z m 1,-2 V 357 h 0.5 0.5 v 0.5 0.5 h -0.5 -0.5 z m 13.5,-9.5 7.95308,-8 h 0.5 0.5 l -7.95308,8 -7.95308,8 h -0.5 -0.5 z m -86.09501,4.75 -1.90499,-2.25 2.25,1.90499 2.25,1.90499 V 354.65499 355 h -0.34501 -0.34501 z M 200,354 v -1.33333 l 0.66667,0.66666 0.66666,0.66667 -0.66666,0.66667 L 200,355.33333 Z m 1.03063,-2.5 v -1 L 202,349 l 0.96937,-1.5 v 1 1 L 202,351 l -0.96937,1.5 z m -80.10632,-5.25 -2.42431,-2.75 2.75,2.42431 2.75,2.42432 V 348.67431 349 h -0.32569 -0.32568 z M 203,346 v -1.33333 l 0.66667,0.66666 0.66666,0.66667 -0.66666,0.66667 L 203,347.33333 Z m 1,-2.5 V 343 h 0.5 0.5 v 0.5 0.5 h -0.5 -0.5 z m -87.59501,-2.75 -1.90499,-2.25 2.25,1.90499 2.25,1.90499 V 342.65499 343 h -0.34501 -0.34501 z M 205,341 v -1.33333 l 0.66667,0.66666 0.66666,0.66667 -0.66666,0.66667 L 205,342.33333 Z m 1.03063,-2.5 v -1 L 207,336 l 0.96937,-1.5 v 1 1 L 207,338 l -0.96937,1.5 z m -94.62564,-3.75 -1.90499,-2.25 2.25,1.90499 2.25,1.90499 V 336.65499 337 h -0.34501 -0.34501 z M 224,335.5 V 335 h 0.5 0.5 v 0.5 0.5 h -0.5 -0.5 z m 7,-7 5.43168,-5.5 h 0.5 0.5 L 232,328.5 226.56832,334 h -0.5 -0.5 z m -23,4 V 332 h 0.5 0.5 v 0.5 0.5 h -0.5 -0.5 z m 1,-2 V 330 h 0.5 0.5 v 0.5 0.5 H 209.5 209 Z M 105.40499,327.75 103.5,325.5 l 2.25,1.90499 2.25,1.90499 V 329.65499 330 h -0.34501 -0.34501 z M 210,327.5 V 327 h 0.5 0.5 v 0.5 0.5 h -0.5 -0.5 z m 1,-2.5 v -1.33333 l 0.66667,0.66666 0.66666,0.66667 -0.66666,0.66667 L 211,326.33333 Z M 99.404988,320.75 97.5,318.5 l 2.25,1.90499 2.25,1.90499 V 322.65499 323 h -0.34501 -0.34501 z M 212,322 v -1.33333 l 0.66667,0.66666 0.66666,0.66667 -0.66666,0.66667 L 212,323.33333 Z m 26.5,-1 0.61803,-1 h 0.5 0.5 l -0.61803,1 -0.61803,1 h -0.5 -0.5 z M 213,319.5 V 319 h 0.5 0.5 v 0.5 0.5 H 213.5 213 Z M 93.404988,313.75 91.5,311.5 l 2.25,1.90499 2.25,1.90499 V 315.65499 316 H 95.654988 95.309975 Z M 215,314.5 V 314 h 0.5 0.5 v 0.5 0.5 h -0.5 -0.5 z m 1,-2.5 v -1.33333 l 0.66667,0.66666 0.66666,0.66667 -0.66666,0.66667 L 216,313.33333 Z m 31,-0.5 V 311 h 0.5 0.5 v 0.5 0.5 H 247.5 247 Z M 88.437091,307.75 85.5,304.5 l 3.25,2.93709 3.25,2.93709 V 310.68709 311 H 91.687091 91.374182 Z M 217,309 v -1.33333 l 0.66667,0.66666 0.66666,0.66667 -0.66666,0.66667 L 217,310.33333 Z m 1,-2.5 V 306 h 0.5 0.5 v 0.5 0.5 H 218.5 218 Z M 82.924314,301.25 80.5,298.5 l 2.75,2.42431 2.75,2.42432 V 303.67431 304 H 85.674314 85.348628 Z M 219,303.5 V 303 h 0.5 0.5 v 0.5 0.5 h -0.5 -0.5 z m 1,-2 V 301 h 0.5 0.5 v 0.5 0.5 h -0.5 -0.5 z m 1.03063,-3 v -1 L 222,296 l 0.96937,-1.5 v 1 1 L 222,298 l -0.96937,1.5 z M 77.924314,295.25 75.5,292.5 l 2.75,2.42431 2.75,2.42432 V 297.67431 298 H 80.674314 80.348628 Z M 223,293 v -1.33333 l 0.66667,0.66666 0.66666,0.66667 -0.66666,0.66667 L 223,294.33333 Z m 1,-2.5 V 290 h 0.5 0.5 v 0.5 0.5 H 224.5 224 Z M 70.872445,287.25 69.5,285.5 l 1.75,1.37244 1.75,1.37245 V 288.62244 289 H 72.622445 72.244889 Z M 225,287.5 V 287 h 0.5 0.5 v 0.5 0.5 h -0.5 -0.5 z m 1,-2.5 v -1.33333 l 0.66667,0.66666 0.66666,0.66667 -0.66666,0.66667 L 226,286.33333 Z M 66.404988,281.75 64.5,279.5 l 2.25,1.90499 2.25,1.90499 V 283.65499 284 h -0.345012 -0.345013 z m 160.625642,0.75 v -1 L 228,280 l 0.96937,-1.5 v 1 1 L 228,282 l -0.96937,1.5 z M 62.872445,277.25 61.5,275.5 l 1.75,1.37244 1.75,1.37245 V 278.62244 279 H 64.622445 64.244889 Z M 229,277 v -1.33333 l 0.66667,0.66666 0.66666,0.66667 -0.66666,0.66667 L 229,278.33333 Z M 61,274 v -1.33333 l 0.666667,0.66666 L 62.333333,274 61.666667,274.66667 61,275.33333 Z m 169,0.5 V 274 h 0.5 0.5 v 0.5 0.5 h -0.5 -0.5 z m 1,-3 V 271 h 0.5 0.5 v 0.5 0.5 h -0.5 -0.5 z m 1,-2.5 v -1.33333 l 0.66667,0.66666 0.66666,0.66667 -0.66666,0.66667 L 232,270.33333 Z M 61,268.5 V 268 h 0.5 0.5 v 0.5 0.5 H 61.5 61 Z m 1,-1.87756 v -0.37755 L 63.75,264.87244 65.5,263.5 64.127555,265.25 62.755111,267 H 62.377555 62 Z M 233,266 v -1.33333 l 0.66667,0.66666 0.66666,0.66667 -0.66666,0.66667 L 233,267.33333 Z M 66,263.5 V 263 h 0.5 0.5 v 0.5 0.5 H 66.5 66 Z m 168,0 V 263 h 0.5 0.5 v 0.5 0.5 h -0.5 -0.5 z m -151.688826,-1.24821 14.811175,-0.30596 14.188821,0.30682 14.18883,0.30683 -29,-8.7e-4 -29,-8.6e-4 z M 235,260.5 V 260 h 0.5 0.5 v 0.5 0.5 H 235.5 235 Z M 124,259 v -1.33333 l 0.66667,0.66666 0.66666,0.66667 -0.66666,0.66667 L 124,260.33333 Z m 112,-0.5 V 258 h 0.5 0.5 v 0.5 0.5 h -0.5 -0.5 z m -113.42857,-4.07143 -0.66877,-2.66457 0.42858,-0.42857 0.42857,-0.42857 0.66876,2.66457 0.66877,2.66457 -0.42858,0.42857 -0.42857,0.42857 z M 237.03063,255.5 v -1 L 238,253 l 0.96937,-1.5 v 1 1 L 238,255 l -0.96937,1.5 z M 239,250 v -1.33333 l 0.66667,0.66666 0.66666,0.66667 -0.66666,0.66667 L 239,251.33333 Z M 121,248.5 V 248 h 0.5 0.5 v 0.5 0.5 h -0.5 -0.5 z m 119.07895,-2.08333 0.0789,-1.91667 0.52522,1.3125 0.52522,1.3125 -0.60416,0.60417 L 240,248.33333 Z M 120,245.5 V 245 h 0.5 0.5 v 0.5 0.5 h -0.5 -0.5 z m 119,-2 V 243 h 0.5 0.5 v 0.5 0.5 H 239.5 239 Z M 119,242 v -1.33333 l 0.66667,0.66666 0.66666,0.66667 -0.66666,0.66667 L 119,243.33333 Z m 118.40451,-1.15451 -0.71353,-1.15451 1.15451,0.71353 L 239,241.11803 V 241.55902 242 h -0.44098 -0.44099 z m -119.83308,-3.41692 -0.66877,-2.66457 0.42858,-0.42857 0.42857,-0.42857 0.66876,2.66457 0.66877,2.66457 -0.42858,0.42857 -0.42857,0.42857 z M 236,238.5 V 238 h 0.5 0.5 v 0.5 0.5 h -0.5 -0.5 z m -4,-5.5 -2.13619,-3 h 0.5 0.5 l 2.13619,3 2.13619,3 h -0.5 -0.5 z M 116,231.5 V 231 h 0.5 0.5 v 0.5 0.5 h -0.5 -0.5 z m -1,-3.5 v -1.33333 l 0.66667,0.66666 0.66666,0.66667 -0.66666,0.66667 L 115,229.33333 Z m 113.40451,-0.15451 -0.71353,-1.15451 1.15451,0.71353 L 230,228.11803 V 228.55902 229 h -0.44098 -0.44099 z m -2,-3 -0.71353,-1.15451 1.15451,0.71353 L 228,225.11803 V 225.55902 226 h -0.44098 -0.44099 z M 114,224.5 V 224 h 0.5 0.5 v 0.5 0.5 h -0.5 -0.5 z m -1.42857,-5.07143 -0.66877,-2.66457 0.42858,-0.42857 0.42857,-0.42857 0.66876,2.66457 0.66877,2.66457 -0.42858,0.42857 -0.42857,0.42857 z m 110.83308,1.41692 -0.71353,-1.15451 1.15451,0.71353 L 225,221.11803 V 221.55902 222 h -0.44098 -0.44099 z m -2,-3 -0.71353,-1.15451 1.15451,0.71353 L 223,218.11803 V 218.55902 219 h -0.44098 -0.44099 z M 111,214 v -1.33333 l 0.66667,0.66666 0.66666,0.66667 -0.66666,0.66667 L 111,215.33333 Z m 106.51128,-1.62312 -1.71873,-2.62313 1.09835,0.67882 1.09835,0.67882 1.04056,1.9443 1.04056,1.94431 h -0.42018 -0.42017 z M 110,210.5 V 210 h 0.5 0.5 v 0.5 0.5 h -0.5 -0.5 z m 104.40451,-2.65451 -0.71353,-1.15451 1.15451,0.71353 L 216,208.11803 V 208.55902 209 h -0.44098 -0.44099 z M 109,207 v -1.33333 l 0.66667,0.66666 0.66666,0.66667 -0.66666,0.66667 L 109,208.33333 Z m 102.40451,-3.15451 -0.71353,-1.15451 1.15451,0.71353 L 213,204.11803 V 204.55902 205 h -0.44098 -0.44099 z M 108,203 v -1.33333 l 0.66667,0.66666 0.66666,0.66667 -0.66666,0.66667 L 108,204.33333 Z m 102,-1.5 V 201 h 0.5 0.5 v 0.5 0.5 h -0.5 -0.5 z m -103.42857,-3.07143 -0.66877,-2.66457 0.42858,-0.42857 0.42857,-0.42857 0.66876,2.66457 0.66877,2.66457 -0.42858,0.42857 -0.42857,0.42857 z M 206.87244,197.25 205.5,195.5 l 1.75,1.37244 1.75,1.37245 V 198.62244 199 h -0.37756 -0.37755 z m -2.46793,-3.40451 -0.71353,-1.15451 1.15451,0.71353 L 206,194.11803 V 194.55902 195 h -0.44098 -0.44099 z M 105,193 v -1.33333 l 0.66667,0.66666 0.66666,0.66667 -0.66666,0.66667 L 105,194.33333 Z m 96.87244,-2.75 -1.37244,-1.75 1.75,1.37244 1.75,1.37245 V 191.62244 192 h -0.37756 -0.37755 z M 104,189.5 V 189 h 0.5 0.5 v 0.5 0.5 h -0.5 -0.5 z m 95.40451,-2.65451 -0.71353,-1.15451 1.15451,0.71353 L 201,187.11803 V 187.55902 188 h -0.44098 -0.44099 z m -96.32556,-1.42882 0.0789,-1.91667 0.52522,1.3125 0.52522,1.3125 -0.60416,0.60417 L 103,187.33333 Z m 94.19919,-1.66667 -0.96674,-1.25 -0.71472,-1.25 -0.71471,-1.25 h 0.444 0.44401 l 1.63806,2.5 1.63807,2.5 h -0.40061 -0.40061 z m -95.70671,-3.32143 -0.66877,-2.66457 0.42858,-0.42857 0.42857,-0.42857 0.66876,2.66457 0.66877,2.66457 -0.42858,0.42857 -0.42857,0.42857 z M 191,175 l -2.13619,-3 h 0.5 0.5 l 2.13619,3 2.13619,3 h -0.5 -0.5 z m -91,0 v -1.33333 l 0.66667,0.66666 0.66666,0.66667 -0.66666,0.66667 L 100,176.33333 Z m -1,-3.5 V 171 h 0.5 0.5 v 0.5 0.5 H 99.5 99 Z m 88.40451,-1.65451 -0.71353,-1.15451 1.15451,0.71353 L 189,170.11803 V 170.55902 171 h -0.44098 -0.44099 z M 98,168.5 V 168 h 0.5 0.5 v 0.5 0.5 H 98.5 98 Z m 86.87244,-2.25 -1.37244,-1.75 1.75,1.37244 1.75,1.37245 V 167.62244 168 h -0.37756 -0.37755 z m -88.301011,-2.82143 -0.668765,-2.66457 0.428572,-0.42857 0.428571,-0.42857 0.668764,2.66457 0.668765,2.66457 -0.428572,0.42857 -0.428571,0.42857 z M 181,161 l -2.13619,-3 h 0.5 0.5 l 2.13619,3 2.13619,3 h -0.5 -0.5 z M 95,157.5 V 157 h 0.5 0.5 v 0.5 0.5 H 95.5 95 Z m 82.43573,-1.60399 -0.6823,-1.10399 2.84508,-2.64601 2.84508,-2.64601 -2.32656,2.67597 -2.32657,2.67597 0.66379,1.07403 0.66378,1.07403 h -0.5 -0.5 z M 94,154 v -1.33333 l 0.666667,0.66666 L 95.333333,154 94.666667,154.66667 94,155.33333 Z m -1,-3.5 V 150 h 0.5 0.5 v 0.5 0.5 H 93.5 93 Z m 91.5,-2.5 1.80998,-2 h 0.5 0.5 l -1.80998,2 -1.80998,2 h -0.5 -0.5 z m -92.928571,-2.57143 -0.668765,-2.66457 0.428572,-0.42857 0.428571,-0.42857 0.668764,2.66457 0.668765,2.66457 -0.428572,0.42857 -0.428571,0.42857 z M 189.5,144 l 1.80998,-2 h 0.5 0.5 l -1.80998,2 -1.80998,2 h -0.5 -0.5 z M 90,140 v -1.33333 l 0.666667,0.66666 L 91.333333,140 90.666667,140.66667 90,141.33333 Z m 105,-0.37756 v -0.37755 l 1.75,-1.37245 1.75,-1.37244 -1.37244,1.75 -1.37245,1.75 H 195.37756 195 Z M 89,136.5 V 136 h 0.5 0.5 v 0.5 0.5 H 89.5 89 Z m 112,-1.87756 v -0.37755 l 1.75,-1.37245 1.75,-1.37244 -1.37244,1.75 -1.37245,1.75 H 201.37756 201 Z M 88,132.5 V 132 h 0.5 0.5 v 0.5 0.5 H 88.5 88 Z M 87,129 v -1.33333 l 0.666667,0.66666 L 88.333333,129 87.666667,129.66667 87,130.33333 Z m 120.9038,-0.3154 1.40381,-1.76017 3.84619,-3.04625 3.8462,-3.04624 v 0.42749 0.4275 l -5.25,4.37892 -5.25,4.37893 z m -122.332371,-4.25603 -0.668765,-2.66457 0.428572,-0.42857 0.428571,-0.42857 0.668764,2.66457 0.668765,2.66457 -0.428572,0.42857 -0.428571,0.42857 z M 221,117.5 223.34863,115 h 0.5 0.5 L 222,117.5 219.65137,120 h -0.5 -0.5 z m -137,1 V 118 h 0.5 0.5 v 0.5 0.5 H 84.5 84 Z m -1,-3 V 115 h 0.5 0.5 v 0.5 0.5 H 83.5 83 Z m 143,-1.87756 v -0.37755 l 1.75,-1.37245 1.75,-1.37244 -1.37244,1.75 -1.37245,1.75 H 226.37756 226 Z M 82,111 v -1.33333 l 0.666667,0.66666 L 83.333333,111 82.666667,111.66667 82,112.33333 Z m -1.428571,-4.57143 -0.668765,-2.66457 0.428572,-0.42857 0.428571,-0.42857 0.668764,2.66457 0.668765,2.66457 -0.428572,0.42857 -0.428571,0.42857 z M 232,108.62244 v -0.37755 l 1.75,-1.37245 1.75,-1.37244 -1.37244,1.75 -1.37245,1.75 H 232.37756 232 Z M 240,101.5 242.34863,99 h 0.5 0.5 L 241,101.5 238.65137,104 h -0.5 -0.5 z M 79,101 V 99.666667 L 79.666667,100.33333 80.333333,101 79.666667,101.66667 79,102.33333 Z m 167,-4.5 2.34863,-2.5 h 0.5 0.5 L 247,96.5 244.65137,99 h -0.5 -0.5 z m -168,1 V 97 H 78.5 79 V 97.5 98 H 78.5 78 Z M 77,94 V 92.666667 L 77.666667,93.333333 78.333333,94 77.666667,94.666667 77,95.333333 Z M 76.078947,90.416667 76.157895,88.5 76.683114,89.8125 77.208333,91.125 76.604167,91.729167 76,92.333333 Z m -1,-4 0.07895,-1.916667 0.525219,1.3125 0.525219,1.3125 -0.604166,0.604167 L 75,88.333333 Z M 74,83 V 81.666667 L 74.666667,82.333333 75.333333,83 74.666667,83.666667 74,84.333333 Z M 73,79.5 V 79 H 73.5 74 V 79.5 80 H 73.5 73 Z m -1,-3 V 76 H 72.5 73 V 76.5 77 H 72.5 72 Z m -1.428571,-5.071429 -0.668765,-2.664569 0.428572,-0.428571 0.428571,-0.428571 0.668764,2.664569 0.668765,2.664569 -0.428572,0.428571 -0.428571,0.428571 z M 69.078947,65.416667 69.157895,63.5 69.683114,64.8125 70.208333,66.125 69.604167,66.729167 69,67.333333 Z M 68,62.5 V 62 H 68.5 69 V 62.5 63 H 68.5 68 Z m -1,-4 V 58 H 67.5 68 V 58.5 59 H 67.5 67 Z M 66,55 V 53.666667 L 66.666667,54.333333 67.333333,55 66.666667,55.666667 66,56.333333 Z M 65.078947,51.416667 65.157895,49.5 65.683114,50.8125 66.208333,52.125 65.604167,52.729167 65,53.333333 Z M 64,48 V 46.666667 L 64.666667,47.333333 65.333333,48 64.666667,48.666667 64,49.333333 Z M 63,44 V 42.666667 L 63.666667,43.333333 64.333333,44 63.666667,44.666667 63,45.333333 Z M 62,41 V 39.666667 L 62.666667,40.333333 63.333333,41 62.666667,41.666667 62,42.333333 Z M 61,37.5 V 37 H 61.5 62 V 37.5 38 H 61.5 61 Z m -1.428571,-5.071429 -0.668765,-2.664569 0.428572,-0.428571 0.428571,-0.428571 0.668764,2.664569 0.668765,2.664569 -0.428572,0.428571 -0.428571,0.428571 z M 58.157895,26 v -2.5 l 0.504386,1.25 0.504386,1.25 -0.504386,1.25 -0.504386,1.25 z M 59,21.357796 V 20.382259 L 60.555166,18.44113 62.110332,16.5 60.919712,19 59.729091,21.5 59.364545,21.916667 59,22.333333 Z M 64.5,14 65.118034,13 h 0.5 0.5 L 65.5,14 64.881966,15 h -0.5 -0.5 z M 67,12.5 V 12 H 67.5 68 V 12.5 13 H 67.5 67 Z M 70.333333,11.333333 71,10.666667 71.666667,11.333333 72.333333,12 H 71 69.666667 Z"
         id="path3" />
      <path
         style="fill:#008e38"
         d="M 245.35022,492.00591 243.20044,491.1386 216.19502,458.8193 189.1896,426.5 167.3448,400.46768 145.5,374.43535 124.5,349.58018 103.5,324.72501 90.21936,309.1125 76.938721,293.5 l -7.466507,-9.11073 -7.466507,-9.11074 -0.619841,-3.0992 -0.61984,-3.0992 3.040064,-3.04007 L 66.846154,263 H 95.923077 125 v -1.94838 -1.94838 l -2.40284,-7.80162 -2.40284,-7.80162 -3.11289,-11 -3.11288,-11 -2.48428,-8.75 L 109,204 l -2.59625,-9.25 -2.59625,-9.25 -2.89393,-10 -2.893932,-10 -2.53779,-9 -2.537789,-9 -2.395341,-8.5 -2.39534,-8.5 -2.53298,-9 -2.532979,-9 -3.117044,-11 -3.117045,-11 -2.035829,-7 -2.03583,-7 L 70.991946,70 69.202221,63.5 65.520505,50.5 61.838788,37.5 60.419394,32.20121 59,26.90242 V 24.911372 22.920324 L 60.904829,19.210162 62.809658,15.5 66.154829,13.5 69.5,11.5 159.75,11.229345 250,10.95869 249.952,52.229345 249.904,93.5 l -4.28304,3.5 -4.28304,3.5 -13.83507,11.5 -13.83507,11.5 -5.08394,4.51313 -5.08393,4.51314 -13.25,10.80841 -13.25,10.80842 v 0.525 0.525 l 8.25,11.50431 8.25,11.50432 4,5.74771 4,5.74771 4.31068,5.90142 4.31068,5.90143 11.99205,17 11.99205,17 2.92827,4.5 2.92827,4.5 0.019,1.72976 0.019,1.72977 -1.4322,3.77023 -1.43219,3.77024 -7.97737,21.5 -7.97737,21.5 -3.54381,9.5 -3.54381,9.5 -6.12918,16 -6.12918,16 -2.33773,6.80797 -2.33774,6.80798 1.25505,-0.30798 1.25504,-0.30797 18.91525,-19.97657 18.91524,-19.97658 6.2279,-6.52342 6.2279,-6.52343 0.0331,88 0.0331,88 0.61984,3.75 0.61983,3.75 -1.88084,-0.0634 -1.88084,-0.0634 z"
         id="path2" />
    </g>
  </g>
</svg>
